<svg version="1.1" xmlns="http://www.w3.org/2000/svg" xmlns:xlink="http://www.w3.org/1999/xlink" x="0px" y="0px" viewBox="0 120 1024 120" xml:space="preserve"><g id="Layer_2_1_"></g> <g id="Layer_3"><g><circle cx="152.5" cy="206.9" r="8.3" class="st0" style="fill: rgb(255, 255, 255) !important;"></circle> <g><path d="M68.6,223.7c44.8,6.9,53.4-68,81.6-71.5c-19.7-7.9-35.2,5.7-44.4,23.6C95.8,195.2,86.4,215.8,68.6,223.7z" class="st0" style="fill: rgb(255, 255, 255) !important;"></path></g> <path d="M266.6,178.7c-10.8-21.8-24.2-47.2-52.3-44.5c15.2,7.5,25,28.7,33.9,44.5c11.4,22.8,24.3,47.9,52.6,45.2
            C286.9,216.1,277.3,200.6,266.6,178.7z" class="st0" style="fill: rgb(255, 255, 255) !important;"></path> <path d="M233.7,178.7c-10.8-21.8-24.2-47.2-52.3-44.5c15.2,7.5,25,28.7,33.9,44.5c11.4,22.8,24.3,47.9,52.6,45.2
            C254.1,216.1,244.5,200.6,233.7,178.7z" class="st0" style="fill: rgb(255, 255, 255) !important;"></path> <path d="M234.9,224c-13.9-7.8-23.5-23.4-34.2-45.2c-11.9-23.4-22.8-44.7-48.2-44.7c-14.8,0-28,9.3-33.5,19.1
            c13.6-13.3,46.9-9.5,63.4,25.7C192.7,200.8,206.6,226.7,234.9,224z" class="st0" style="fill: rgb(255, 255, 255) !important;"></path></g> <g><path d="M399.7,221.7v0.4c-3,1.3-6.2,2.2-9.7,2.6c-5.9,0.7-11.4,0-16.7-2.1c-5.6-2.2-10-5.7-13.2-10.6
            c-3.6-5.3-5.4-12.1-5.4-20.5c0-10.4,2.9-18.5,8.8-24.4c5.8-5.7,13.5-8.6,23-8.6c9.6,0,17.3,2.9,23.1,8.7
            c5.8,5.8,8.7,13.5,8.7,23.1v33h-12.6v-33c0-6.1-1.7-10.9-5.1-14.3c-3.3-3.3-8-4.9-14.1-4.9c-6.1,0-10.8,1.6-14.1,4.9
            c-3.4,3.4-5.1,8.6-5.1,15.5c0,6.9,1.7,12,5.1,15.4c3.3,3.3,8,5,14.1,5c0.8,0,1.6,0,2.3-0.1C394.7,211.5,399.7,215.9,399.7,221.7z" class="st0" style="fill: rgb(255, 255, 255) !important;"></path> <path d="M466,159.7l0,12.6c-11,0-17.3,1.5-21.2,5.6c-2.8,2.8-4.2,7.4-4.2,13.7v31.8h-12.6v-31.8
            c0-9.6,2.6-17,7.7-22.4C443.9,160.5,456.8,159.7,466,159.7z" class="st0" style="fill: rgb(255, 255, 255) !important;"></path> <path d="M530.9,146.8h-12.6v-12.6l0,0C525.3,134.2,530.9,139.8,530.9,146.8L530.9,146.8z M530.9,223.3h-12.6v-63.6
            h12.6V223.3z" class="st0" style="fill: rgb(255, 255, 255) !important;"></path> <path d="M588.1,159.7v12.6h-23.5c-4.7,0-8.3,0.8-10.7,2.4c-1.7,1.1-2.5,2.4-2.5,4.1c0,2.2,1.4,3.8,4.3,4.8
            c1.7,0.6,4.9,1.2,9.6,1.7c8.3,1,14.1,2.3,17.2,4c5.2,2.8,7.8,7.9,7.8,15c0,6.2-2.7,11.1-8.2,14.6c-4.5,3-10.4,4.5-17.6,4.5h-23.9
            v-12.6h23.9c4.7,0,8.3-0.8,10.7-2.4c1.7-1.1,2.5-2.5,2.5-4.1c0-2.2-1.4-3.8-4.3-4.8c-1.8-0.6-4.9-1.2-9.6-1.7
            c-8.3-0.9-14.1-2.3-17.2-4c-5.2-2.8-7.8-7.9-7.8-15c0-6.2,2.7-11.1,8.2-14.7c4.5-2.9,10.4-4.4,17.6-4.4H588.1z" class="st0" style="fill: rgb(255, 255, 255) !important;"></path> <path d="M612.6,172.3v19.2c0,6.1,1.7,10.8,5.1,14.2c3.3,3.3,7.4,5,15.1,5l0,12.6h-1.1c-9.6,0-17.2-3-23-8.7
            c-5.9-5.9-8.8-13.6-8.8-23.1v-57.3l0,0c6.9,0,12.6,5.6,12.6,12.6v12.9h19.8v12.6H612.6z" class="st0" style="fill: rgb(255, 255, 255) !important;"></path> <path d="M488.3,172.3v19.2c0,6.1,1.7,10.8,5.1,14.2c3.3,3.3,7.4,5,15.1,5l0,12.6h-1.1c-9.6,0-17.2-3-23-8.7
            c-5.9-5.9-8.8-13.6-8.8-23.1v-57.3l0,0c6.9,0,12.6,5.6,12.6,12.6v12.9h19.8v12.6H488.3z" class="st0" style="fill: rgb(255, 255, 255) !important;"></path> <path d="M642.6,162c3.5,0,6.5,2.4,7.2,5.9l9.4,44.9c0.3,1.5,1,2.7,2,3.5c1.1,0.8,2.5,1.2,4.2,1.2
            c1.8,0,3.3-0.4,4.3-1.3c0.9-0.8,1.6-2,2.1-3.7l9.8-33.9c0.9-3,2.3-5.4,4.4-7.1c2.3-1.9,4.8-2.9,7.6-2.9c2.7,0,5,0.7,6.8,2
            c2.4,1.7,4.2,4.4,5.3,8.1l9.8,33.9c0.5,1.7,1.3,3,2.3,3.8c1,0.8,2.4,1.2,4.1,1.2c1.7,0,3.1-0.4,4.2-1.2c1-0.8,1.7-2,2-3.5
            l9.4-44.9c0.7-3.4,3.7-5.9,7.2-5.9l0,0l-10.9,52c-0.7,3-2,5.3-4.2,7c-2,1.6-4.6,2.4-7.8,2.4c-3,0-5.6-0.8-7.6-2.4
            c-2.1-1.6-3.5-3.8-4.4-6.8l-9.8-33.9c-0.7-2.4-1.7-4-2.9-4.9c-0.9-0.6-2-0.9-3.5-0.9c-1.4,0-2.7,0.5-3.8,1.5c-1.2,1-2,2.4-2.6,4.2
            l-9.8,34c-0.8,2.8-2.1,4.9-3.9,6.4c-2.1,1.8-4.8,2.7-8.1,2.7c-3.1,0-5.7-0.8-7.8-2.4c-2.2-1.7-3.5-4-4.2-7L642.6,162L642.6,162z" class="st0" style="fill: rgb(255, 255, 255) !important;"></path> <path d="M797.7,217.2L797.7,217.2c-5.2,4.1-11.8,6.2-19.9,6.2c-9.3,0-16.8-2.7-22.3-8.2c-5.6-5.6-8.4-13.1-8.4-22.4
            c0-9.3,2.8-16.8,8.4-22.5c5.5-5.5,13-8.2,22.3-8.2c9.3,0,16.7,2.7,22.2,8.2c5.6,5.7,8.4,13.1,8.4,22.5v30.7h-5.9v-30.7
            c0-7.7-2.2-13.8-6.7-18.3c-4.4-4.4-10.4-6.6-18.1-6.6c-7.7,0-13.8,2.2-18.1,6.6c-4.5,4.4-6.7,10.5-6.7,18.3
            c0,7.7,2.2,13.8,6.7,18.3c4.4,4.4,10.4,6.5,18.1,6.5c5.7,0,10.6-1.3,14.3-3.5C794.6,212.5,797.7,214.3,797.7,217.2z" class="st0" style="fill: rgb(255, 255, 255) !important;"></path> <path d="M807.1,162c3.8,0,7.3,2.3,8.7,5.9l17.9,45.3c0.5,1.3,1.4,2.4,2.6,3.1c1.3,0.8,2.9,1.2,4.6,1.2
            c1.7,0,3.3-0.4,4.6-1.2c1.3-0.7,2.2-1.8,2.7-3.1l17.9-45.3c1.4-3.6,4.9-5.9,8.7-5.9l0,0l-21.1,53.4c-1,2.5-2.7,4.5-5,5.9
            c-2.3,1.4-4.8,2.1-7.7,2.1c-2.8,0-5.4-0.7-7.6-2.1c-2.3-1.5-4-3.4-5-5.9L807.1,162L807.1,162z" class="st0" style="fill: rgb(255, 255, 255) !important;"></path> <path d="M927.5,183.5c-1.4-4.6-3.9-8.2-7.4-10.9c-4.2-3.2-9.5-4.8-16.1-4.8c-7.7,0-13.8,2.2-18.1,6.6
            c-4.5,4.4-6.7,10.5-6.7,18.3c0,3.3,0.6,6.7,1.7,10.3c1.1,3.1,2.8,5.8,5,8c4.4,4.4,10.4,6.5,18.1,6.5h18c3.2,0,5.9,2.6,5.9,5.9l0,0
            H904c-9.3,0-16.8-2.7-22.3-8.2c-5.6-5.6-8.4-13.1-8.4-22.4c0-9.3,2.8-16.8,8.4-22.5c5.5-5.5,13-8.2,22.3-8.2c7.9,0,14.4,2,19.6,6
            c5.3,4.1,8.8,9.7,10.3,16.9l0.6,2.7l-49.2,14.1l0,0c-0.8-3.1,1-6.3,4.1-7.2L927.5,183.5z" class="st0" style="fill: rgb(255, 255, 255) !important;"></path></g></g></svg> 